<?xml version="1.0" encoding="UTF-8" standalone="no"?>
<!-- Created with Inkscape (http://www.inkscape.org/) -->

<svg
   width="82.146904mm"
   height="20.099173mm"
   viewBox="0 0 82.146904 20.099173"
   version="1.1"
   id="svg5"
   xml:space="preserve"
   xmlns="http://www.w3.org/2000/svg"
   xmlns:svg="http://www.w3.org/2000/svg"><defs
     id="defs2"><clipPath
       clipPathUnits="userSpaceOnUse"
       id="clipPath8831"><g
         id="g8835"
         transform="matrix(2.8346458,0,0,-2.8346457,-944.62548,73.990374)"><path
           d="M 220,-0.00135005 H 897.3333 V 1772.0981 H 220 Z"
           id="path8833"
           style="stroke-width:0.352778" /></g></clipPath><clipPath
       clipPathUnits="userSpaceOnUse"
       id="clipPath8837"><g
         id="g8841"
         transform="matrix(2.8346458,0,0,-2.8346457,-915.52517,58.190074)"><path
           d="M 220,-0.00135005 H 897.3333 V 1772.0981 H 220 Z"
           id="path8839"
           style="stroke-width:0.352778" /></g></clipPath><clipPath
       clipPathUnits="userSpaceOnUse"
       id="clipPath8843"><g
         id="g8847"
         transform="matrix(2.8346458,0,0,-2.8346457,-975.02768,65.108072)"><path
           d="M 220,-0.00135005 H 897.3333 V 1772.0981 H 220 Z"
           id="path8845"
           style="stroke-width:0.352778" /></g></clipPath><clipPath
       clipPathUnits="userSpaceOnUse"
       id="clipPath8849"><g
         id="g8853"
         transform="matrix(2.8346458,0,0,-2.8346457,-946.09499,49.629574)"><path
           d="M 220,-0.00135005 H 897.3333 V 1772.0981 H 220 Z"
           id="path8851"
           style="stroke-width:0.352778" /></g></clipPath><clipPath
       clipPathUnits="userSpaceOnUse"
       id="clipPath8855"><g
         id="g8859"
         transform="matrix(2.8346458,0,0,-2.8346457,-953.28447,61.547473)"><path
           d="M 220,-0.00135005 H 897.3333 V 1772.0981 H 220 Z"
           id="path8857"
           style="stroke-width:0.352778" /></g></clipPath><clipPath
       clipPathUnits="userSpaceOnUse"
       id="clipPath8861"><g
         id="g8865"
         transform="matrix(2.8346458,0,0,-2.8346457,-894.52799,53.751574)"><path
           d="M 220,-0.00135005 H 897.3333 V 1772.0981 H 220 Z"
           id="path8863"
           style="stroke-width:0.352778" /></g></clipPath><clipPath
       clipPathUnits="userSpaceOnUse"
       id="clipPath8867"><g
         id="g8871"><path
           d="M 220,-0.00135005 H 897.3333 V 1772.0981 H 220 Z"
           id="path8869"
           style="stroke-width:0.352778" /></g></clipPath><clipPath
       clipPathUnits="userSpaceOnUse"
       id="clipPath8873"><g
         id="g8877"
         transform="matrix(2.8346458,0,0,-2.8346457,-867.64667,59.745773)"><path
           d="M 220,-0.00135005 H 897.3333 V 1772.0981 H 220 Z"
           id="path8875"
           style="stroke-width:0.352778" /></g></clipPath><clipPath
       clipPathUnits="userSpaceOnUse"
       id="clipPath8879"><g
         id="g8883"
         transform="matrix(2.8346458,0,0,-2.8346457,-846.26559,65.144673)"><path
           d="M 220,-0.00135005 H 897.3333 V 1772.0981 H 220 Z"
           id="path8881"
           style="stroke-width:0.352778" /></g></clipPath><clipPath
       clipPathUnits="userSpaceOnUse"
       id="clipPath8885"><g
         id="g8889"
         transform="matrix(2.8346458,0,0,-2.8346457,-805.40987,58.952273)"><path
           d="M 220,-0.00135005 H 897.3333 V 1772.0981 H 220 Z"
           id="path8887"
           style="stroke-width:0.352778" /></g></clipPath><clipPath
       clipPathUnits="userSpaceOnUse"
       id="clipPath8891"><g
         id="g8895"
         transform="matrix(2.8346458,0,0,-2.8346457,-783.49588,63.398072)"><path
           d="M 220,-0.00135005 H 897.3333 V 1772.0981 H 220 Z"
           id="path8893"
           style="stroke-width:0.352778" /></g></clipPath><clipPath
       clipPathUnits="userSpaceOnUse"
       id="clipPath8897"><g
         id="g8901"><path
           d="M 220,-0.00135005 H 897.3333 V 1772.0981 H 220 Z"
           id="path8899"
           style="stroke-width:0.352778" /></g></clipPath><clipPath
       clipPathUnits="userSpaceOnUse"
       id="clipPath8903"><g
         id="g8907"
         transform="matrix(2.8346458,0,0,-2.8346457,-766.06139,72.131473)"><path
           d="M 220,-0.00135005 H 897.3333 V 1772.0981 H 220 Z"
           id="path8905"
           style="stroke-width:0.352778" /></g></clipPath></defs><g
     id="g384"
     transform="matrix(0.35277776,0,0,-0.35277778,7.9805541,13.716153)"
     clip-path="url(#clipPath8903)"
     style="fill:#352727;fill-opacity:1"><path
       d="m 0,0 c -1.375,-0.635 -4.258,-1.271 -7.896,-1.271 -8.427,0 -14.726,4.764 -14.726,13.577 0,8.416 6.343,14.053 15.614,14.053 3.681,0 6.076,-0.715 7.097,-1.191 L -0.887,22.35 c -1.419,0.635 -3.504,1.111 -5.988,1.111 -7.009,0 -11.666,-4.009 -11.666,-11.036 0,-6.59 4.213,-10.758 11.444,-10.758 2.395,0 4.791,0.437 6.343,1.111 z"
       style="fill:#352727;fill-opacity:1;fill-rule:nonzero;stroke:none"
       id="path386" /></g><path
     d="m 271.87738,18.96222 h 1.37725 v 6.778272 h -1.37725 z m 1.53353,-1.904295 c 0,0.419806 -0.32879,0.756003 -0.8763,0.756003 -0.5006,0 -0.82938,-0.336197 -0.82938,-0.756003 0,-0.420158 0.34431,-0.770467 0.86077,-0.770467 0.50059,0 0.84491,0.336198 0.84491,0.770467"
     style="fill:#352727;fill-opacity:1;fill-rule:nonzero;stroke:none;stroke-width:0.352778"
     id="path388"
     clip-path="url(#clipPath8897)"
     transform="translate(-262.26887,-11.730228)" /><g
     id="g390"
     transform="matrix(0.35277776,0,0,-0.35277778,14.131054,10.635203)"
     clip-path="url(#clipPath8891)"
     style="fill:#352727;fill-opacity:1"><path
       d="m 0,0 c 0,-4.208 2.661,-7.384 6.476,-7.384 3.726,0 6.52,3.136 6.52,7.463 0,3.255 -1.818,7.344 -6.431,7.344 C 1.996,7.423 0,3.612 0,0 m 16.989,0.198 c 0,-7.106 -5.545,-10.202 -10.69,-10.202 -5.767,0 -10.291,3.811 -10.291,9.885 0,6.391 4.746,10.162 10.646,10.162 6.165,0 10.335,-4.009 10.335,-9.845"
       style="fill:#352727;fill-opacity:1;fill-rule:nonzero;stroke:none"
       id="path392" /></g><g
     id="g394"
     transform="matrix(0.35277776,0,0,-0.35277778,21.861824,9.0668239)"
     clip-path="url(#clipPath8885)"
     style="fill:#352727;fill-opacity:1"><path
       d="M 0,0 C 0,2.025 -0.088,3.612 -0.177,5.201 H 3.238 L 3.415,2.064 h 0.134 c 1.197,1.827 3.194,3.534 6.787,3.534 2.883,0 5.101,-1.588 6.032,-3.851 h 0.089 c 0.664,1.111 1.553,1.905 2.439,2.501 1.287,0.873 2.662,1.35 4.702,1.35 2.883,0 7.097,-1.667 7.097,-8.337 V -14.013 H 26.88 v 10.837 c 0,3.732 -1.552,5.915 -4.657,5.915 -2.262,0 -3.948,-1.468 -4.657,-3.136 -0.178,-0.516 -0.311,-1.111 -0.311,-1.747 V -14.013 H 13.44 v 11.512 c 0,3.057 -1.508,5.24 -4.479,5.24 C 6.565,2.739 4.746,0.993 4.125,-0.754 3.903,-1.23 3.815,-1.866 3.815,-2.461 V -14.013 H 0 Z"
       style="fill:#352727;fill-opacity:1;fill-rule:nonzero;stroke:none"
       id="path396" /></g><g
     id="g398"
     transform="matrix(0.35277776,0,0,-0.35277778,36.274814,11.251365)"
     clip-path="url(#clipPath8879)"
     style="fill:#352727;fill-opacity:1"><path
       d="m 0,0 c 0,-0.516 0.043,-0.993 0.177,-1.429 0.71,-2.422 3.061,-4.09 5.856,-4.09 4.124,0 6.52,3.018 6.52,7.424 0,3.811 -2.262,7.106 -6.388,7.106 C 3.504,9.011 0.975,7.344 0.266,4.724 0.132,4.287 0,3.771 0,3.334 Z m -3.86,5.121 c 0,2.461 -0.088,4.446 -0.177,6.272 h 3.46 l 0.222,-3.295 h 0.088 c 1.554,2.342 4.126,3.692 7.629,3.692 5.235,0 9.138,-3.93 9.138,-9.726 0,-6.908 -4.746,-10.321 -9.802,-10.321 -2.839,0 -5.323,1.111 -6.61,3.017 H 0 v -10.441 h -3.86 z"
       style="fill:#352727;fill-opacity:1;fill-rule:nonzero;stroke:none"
       id="path400" /></g><g
     id="g402"
     transform="matrix(0.35277776,0,0,-0.35277778,43.817584,9.3467529)"
     clip-path="url(#clipPath8873)"
     style="fill:#352727;fill-opacity:1"><path
       d="M 0,0 C 0,2.263 -0.044,4.208 -0.177,5.994 H 3.238 L 3.415,2.183 h 0.134 c 0.976,2.581 3.37,4.208 5.988,4.208 0.399,0 0.71,-0.039 1.064,-0.079 V 3.017 C 10.202,3.096 9.803,3.096 9.271,3.096 6.521,3.096 4.57,1.27 4.036,-1.35 3.948,-1.826 3.903,-2.422 3.903,-2.978 V -13.22 H 0 Z"
       style="fill:#352727;fill-opacity:1;fill-rule:nonzero;stroke:none"
       id="path404" /></g><path
     d="m 311.26608,18.96222 h 1.37724 v 6.778272 h -1.37724 z m 1.53352,-1.904295 c 0,0.419806 -0.32844,0.756003 -0.8763,0.756003 -0.50059,0 -0.82903,-0.336197 -0.82903,-0.756003 0,-0.420158 0.34396,-0.770467 0.86078,-0.770467 0.50024,0 0.84455,0.336198 0.84455,0.770467"
     style="fill:#352727;fill-opacity:1;fill-rule:nonzero;stroke:none;stroke-width:0.352778"
     id="path406"
     clip-path="url(#clipPath8867)"
     transform="translate(-262.26887,-11.730228)" /><g
     id="g408"
     transform="matrix(0.35277776,0,0,-0.35277778,53.300714,7.2321329)"
     clip-path="url(#clipPath8861)"
     style="fill:#352727;fill-opacity:1"><path
       d="m 0,0 3.06,-4.129 c 0.844,-1.072 1.509,-2.024 2.219,-3.096 h 0.088 c 0.71,1.111 1.42,2.104 2.174,3.136 L 10.513,0 h 4.258 l -7.319,-9.29 7.496,-9.924 h -4.391 l -3.194,4.327 c -0.843,1.112 -1.552,2.184 -2.306,3.335 H 4.969 c -0.71,-1.151 -1.42,-2.183 -2.263,-3.335 l -3.105,-4.327 H -4.702 L 2.927,-9.408 -4.347,0 Z"
       style="fill:#352727;fill-opacity:1;fill-rule:nonzero;stroke:none"
       id="path410" /></g><g
     id="g412"
     transform="matrix(0.35277776,0,0,-0.35277778,74.028694,9.9823529)"
     clip-path="url(#clipPath8855)"
     style="fill:#352727;fill-opacity:1"><path
       d="m 0,0 c 0,3.965 -3.516,7.191 -7.838,7.191 -4.322,0 -7.837,-3.226 -7.837,-7.191 0,-3.965 3.515,-7.19 7.837,-7.19 C -3.516,-7.19 0,-3.965 0,0"
       style="fill:#352727;fill-opacity:1;fill-rule:nonzero;stroke:none"
       id="path414" /></g><g
     id="g416"
     transform="matrix(0.35277776,0,0,-0.35277778,71.492404,5.7779829)"
     clip-path="url(#clipPath8849)"
     style="fill:#352727;fill-opacity:1"><path
       d="m 0,0 c 0.496,-1.217 1.161,-2.027 1.513,-2.4 0.728,-0.777 1.456,-1.225 2.042,-1.584 0.482,-0.296 0.744,-0.443 1.119,-0.587 0.129,-0.05 0.252,-0.092 0.375,-0.133 0.259,-0.088 0.504,-0.17 0.816,-0.342 0.006,-0.003 0.178,-0.1 0.354,-0.219 1.319,-0.902 2.03,-3.271 2.037,-3.295 0.188,-0.642 0.267,-1.129 0.33,-1.521 0.106,-0.666 0.191,-1.191 0.786,-1.486 0.235,-0.117 0.497,-0.167 0.761,-0.167 0.563,0 1.14,0.231 1.506,0.555 0.643,0.57 0.629,1.339 0.612,2.404 l -0.003,0.155 c -0.032,2.005 -0.047,2.921 -0.069,3.15 -0.003,0.022 -0.211,2.24 -0.174,5.013 0.03,2.215 0.211,3.044 0.806,3.695 0.46,0.503 1.027,0.786 1.252,0.885 0.666,0.296 1.318,0.331 2.731,0.381 0.239,0.008 0.324,0.007 0.631,0.005 0.272,-0.002 0.712,-0.006 1.565,-0.006 l 1.277,0.005 c 0.292,0.001 0.392,0.002 0.645,-0.004 1.265,-0.03 1.901,-0.046 2.612,-0.213 0.797,-0.188 1.373,-0.324 1.828,-0.729 0.634,-0.563 0.728,-1.393 0.853,-2.933 0.048,-0.609 0.046,-1.108 0.044,-1.507 -0.005,-0.877 -0.008,-1.511 0.585,-2.034 0.446,-0.392 1.242,-0.706 1.929,-0.475 1.636,0.556 1.712,3.888 1.045,6.032 -0.238,0.767 -0.797,2.564 -2.617,3.821 -0.83,0.574 -1.718,0.847 -2.502,1.088 L 24.588,7.585 C 23.419,7.946 22.436,8.064 21.85,8.135 20.977,8.242 20.323,8.258 19.493,8.278 18.629,8.299 17.769,8.287 16.943,8.241 16.32,8.207 15.766,8.157 15.491,8.126 14.599,8.026 12.228,7.762 10.726,6.541 9.228,5.322 8.951,3.496 8.629,1.381 8.535,0.763 8.496,0.22 8.462,-0.259 8.396,-1.167 8.346,-1.686 8.087,-1.796 7.841,-1.904 7.395,-1.749 6.54,-1.385 5.714,-1.032 5.117,-0.777 4.583,-0.244 3.691,0.649 3.563,1.768 3.415,3.063 3.393,3.248 3.369,3.458 3.427,5.691 c 0.069,2.57 0.114,3.088 0.195,3.591 0.235,1.457 0.342,2.122 0.842,2.57 0.798,0.713 2.116,0.788 2.751,0.824 1.677,0.095 2.342,0.027 2.38,0.023 0.372,-0.042 1.242,-0.144 1.864,0.377 l 0.095,0.088 c 0.558,0.559 0.646,1.577 0.192,2.224 -0.332,0.474 -0.87,0.632 -1.81,0.772 -1.183,0.175 -2.302,0.341 -3.944,0.092 -0.937,-0.143 -2,-0.304 -3.16,-0.968 C 2.385,15.027 1.455,14.495 0.769,13.449 0.311,12.751 0.083,12.003 -0.068,11.508 -0.132,11.297 -0.254,10.861 -0.356,10.311 -0.368,10.248 -0.455,9.769 -0.507,9.205 -0.677,7.343 -0.566,4.963 -0.56,4.863 -0.439,2.314 -0.372,0.91 0,0"
       style="fill:#352727;fill-opacity:1;fill-rule:nonzero;stroke:none"
       id="path418" /></g><g
     id="g420"
     transform="matrix(0.35277776,0,0,-0.35277778,81.699214,11.238453)"
     clip-path="url(#clipPath8843)"
     style="fill:#352727;fill-opacity:1"><path
       d="m 0,0 c -0.283,0.408 -0.871,1.257 -2.015,1.877 -0.754,0.409 -1.566,0.613 -2.107,0.748 -0.227,0.058 -0.699,0.167 -1.309,0.259 -0.077,0.012 -0.59,0.088 -1.194,0.132 -2.034,0.148 -4.632,0.039 -4.743,0.035 -2.989,-0.127 -4.351,-0.197 -5.291,-0.519 -1.317,-0.452 -2.199,-1.058 -2.608,-1.379 -0.85,-0.668 -1.338,-1.335 -1.731,-1.871 -0.326,-0.444 -0.488,-0.686 -0.647,-1.034 -0.055,-0.119 -0.1,-0.231 -0.146,-0.345 -0.098,-0.244 -0.182,-0.454 -0.367,-0.735 -0.004,-0.006 -0.106,-0.161 -0.235,-0.319 -0.989,-1.212 -3.607,-1.873 -3.633,-1.88 -0.71,-0.175 -1.248,-0.248 -1.681,-0.308 -0.737,-0.1 -1.268,-0.173 -1.589,-0.714 -0.421,-0.712 -0.106,-1.665 0.44,-2.174 0.607,-0.565 1.432,-0.552 2.571,-0.533 l 0.096,10e-4 c 2.244,0.037 3.268,0.053 3.518,0.074 0.023,0.003 2.449,0.2 5.507,0.175 2.458,-0.021 3.381,-0.186 4.113,-0.74 0.547,-0.414 0.86,-0.928 0.968,-1.128 0.316,-0.59 0.354,-1.144 0.415,-2.45 0.009,-0.215 0.009,-0.292 0.007,-0.568 -0.002,-0.248 -0.004,-0.649 -0.002,-1.432 l 0.008,-1.155 c 0.004,-0.27 0.005,-0.361 -0.001,-0.594 -0.029,-1.146 -0.044,-1.721 -0.22,-2.355 -0.201,-0.717 -0.346,-1.235 -0.78,-1.645 -0.629,-0.593 -1.553,-0.683 -3.266,-0.803 -0.676,-0.047 -1.221,-0.045 -1.663,-0.045 -0.972,0 -1.609,0.002 -2.163,-0.524 -0.447,-0.425 -0.801,-1.187 -0.525,-1.858 0.39,-0.947 1.915,-1.31 3.559,-1.31 1.026,0 2.098,0.141 2.969,0.369 0.834,0.219 2.785,0.729 4.154,2.39 0.632,0.767 0.944,1.62 1.195,2.306 l 0.033,0.091 c 0.393,1.071 0.524,1.979 0.601,2.521 0.114,0.797 0.129,1.392 0.15,2.162 0.02,0.785 0.004,1.571 -0.049,2.339 -0.04,0.57 -0.097,1.077 -0.132,1.33 -0.113,0.822 -0.413,3.005 -1.77,4.384 -1.328,1.352 -3.316,1.598 -5.616,1.882 -0.669,0.083 -1.269,0.117 -1.787,0.147 -0.862,0.049 -1.605,0.092 -1.735,0.342 -0.105,0.205 0.127,0.693 0.447,1.321 0.381,0.75 0.657,1.292 1.237,1.778 0.991,0.829 2.232,0.951 3.67,1.092 0.205,0.021 0.438,0.045 2.896,-0.003 2.826,-0.054 3.397,-0.094 3.953,-0.167 1.57,-0.206 2.358,-0.31 2.864,-0.776 0.767,-0.71 0.852,-1.89 0.892,-2.457 0.109,-1.516 0.038,-2.116 0.034,-2.153 -0.043,-0.323 -0.158,-1.181 0.435,-1.766 l 0.097,-0.088 c 0.67,-0.552 1.725,-0.516 2.319,-0.165 0.521,0.305 0.701,0.828 0.853,1.692 0.19,1.09 0.37,2.119 0.088,3.632 C 0.923,-2.05 0.741,-1.07 0,0"
       style="fill:#352727;fill-opacity:1;fill-rule:nonzero;stroke:none"
       id="path422" /></g><g
     id="g424"
     transform="matrix(0.35277776,0,0,-0.35277778,60.708054,8.7979369)"
     clip-path="url(#clipPath8837)"
     style="fill:#352727;fill-opacity:1"><path
       d="m 0,0 c 0.277,-0.411 0.855,-1.267 1.99,-1.899 0.751,-0.419 1.561,-0.631 2.097,-0.772 0.227,-0.059 0.698,-0.175 1.301,-0.272 0.068,-0.012 0.586,-0.095 1.197,-0.146 1.042,-0.088 2.235,-0.11 3.164,-0.11 0.881,0 1.524,0.02 1.578,0.022 2.781,0.087 4.313,0.135 5.298,0.46 0.977,0.323 1.909,0.802 2.625,1.349 0.86,0.659 1.357,1.32 1.756,1.851 0.331,0.44 0.496,0.681 0.66,1.026 0.057,0.119 0.104,0.233 0.151,0.346 0.101,0.242 0.188,0.451 0.376,0.728 0.004,0.006 0.109,0.161 0.24,0.317 1.006,1.202 3.632,1.833 3.658,1.84 0.713,0.167 1.252,0.235 1.686,0.289 0.737,0.093 1.27,0.159 1.596,0.696 0.431,0.707 0.13,1.663 -0.41,2.179 -0.6,0.573 -1.375,0.564 -2.566,0.563 C 24.09,8.455 23.038,8.449 22.785,8.431 22.76,8.429 20.314,8.259 17.275,8.318 c -2.457,0.048 -3.378,0.224 -4.101,0.786 -0.546,0.422 -0.847,0.936 -0.953,1.139 -0.31,0.594 -0.339,1.148 -0.382,2.453 -0.007,0.216 -0.005,0.292 0,0.567 0.005,0.248 0.013,0.65 0.021,1.432 l 0.007,1.173 c 10e-4,0.257 10e-4,0.349 0.01,0.576 0.044,1.146 0.067,1.721 0.252,2.354 0.211,0.715 0.362,1.232 0.803,1.636 0.637,0.586 1.561,0.666 3.276,0.767 0.676,0.039 1.218,0.033 1.663,0.027 0.97,-0.013 1.608,-0.021 2.169,0.499 0.453,0.42 0.818,1.178 0.551,1.851 -0.614,1.547 -4.243,1.582 -6.517,1.014 C 13.238,24.384 11.28,23.895 9.89,22.25 9.245,21.488 8.922,20.637 8.629,19.867 8.222,18.802 8.08,17.896 7.995,17.354 7.87,16.553 7.846,15.954 7.816,15.193 7.785,14.405 7.791,13.597 7.834,12.854 7.866,12.284 7.916,11.776 7.947,11.522 8.049,10.699 8.319,8.513 9.658,7.118 10.97,5.751 12.954,5.483 15.25,5.173 15.919,5.083 16.517,5.042 17.035,5.006 17.895,4.948 18.639,4.896 18.764,4.646 18.866,4.44 18.628,3.955 18.302,3.334 17.91,2.586 17.626,2.046 17.038,1.565 16.037,0.748 14.794,0.639 13.355,0.513 13.146,0.495 12.91,0.475 10.457,0.549 7.635,0.635 7.063,0.681 6.507,0.761 4.939,0.984 4.152,1.097 3.655,1.568 2.897,2.287 2.828,3.467 2.795,4.035 2.706,5.551 2.786,6.151 2.79,6.182 2.839,6.506 2.967,7.364 2.383,7.955 l -0.1,0.093 C 1.622,8.606 0.566,8.583 -0.034,8.24 -0.559,7.94 -0.746,7.419 -0.908,6.557 -1.114,5.47 -1.307,4.443 -1.046,2.929 -0.897,2.063 -0.729,1.081 0,0"
       style="fill:#352727;fill-opacity:1;fill-rule:nonzero;stroke:none"
       id="path426" /></g><g
     id="g428"
     transform="matrix(0.35277776,0,0,-0.35277778,70.973994,14.371932)"
     clip-path="url(#clipPath8831)"
     style="fill:#352727;fill-opacity:1"><path
       d="m 0,0 c -0.342,0.903 -0.858,1.767 -1.451,2.434 -0.709,0.792 -1.425,1.254 -2,1.627 -0.477,0.308 -0.735,0.46 -1.104,0.612 -0.128,0.053 -0.25,0.097 -0.371,0.14 -0.258,0.094 -0.501,0.182 -0.808,0.36 -0.007,0.004 -0.176,0.103 -0.347,0.226 -1.296,0.93 -1.945,3.313 -1.951,3.337 -0.171,0.645 -0.237,1.135 -0.289,1.528 -0.09,0.668 -0.16,1.195 -0.749,1.504 -0.729,0.383 -1.729,0.128 -2.275,-0.338 -0.657,-0.555 -0.664,-1.324 -0.674,-2.389 -0.021,-2.107 -0.03,-3.069 -0.015,-3.306 0.002,-0.022 0.152,-2.246 0.043,-5.015 -0.087,-2.214 -0.289,-3.039 -0.902,-3.678 -0.469,-0.489 -1.048,-0.763 -1.274,-0.858 -0.675,-0.281 -1.328,-0.302 -2.742,-0.321 -0.238,-0.003 -0.322,-0.001 -0.627,0.008 -0.271,0.008 -0.712,0.021 -1.569,0.04 l -1.273,0.023 c -0.292,0.005 -0.392,0.006 -0.657,0.018 -1.261,0.058 -1.893,0.087 -2.597,0.269 -0.791,0.206 -1.363,0.354 -1.807,0.768 -0.618,0.576 -0.691,1.408 -0.775,2.95 -0.033,0.61 -0.018,1.108 -0.005,1.509 0.028,0.876 0.048,1.509 -0.533,2.045 -0.437,0.404 -1.224,0.737 -1.917,0.518 -1.649,-0.52 -1.811,-3.848 -1.201,-6.006 0.22,-0.773 0.733,-2.583 2.519,-3.879 0.817,-0.591 1.697,-0.883 2.473,-1.142 l 0.1,-0.033 c 1.153,-0.383 2.137,-0.525 2.724,-0.61 0.876,-0.125 1.527,-0.155 2.351,-0.193 0.861,-0.04 1.719,-0.047 2.552,-0.018 0.622,0.021 1.177,0.058 1.458,0.084 0.894,0.08 3.271,0.294 4.801,1.481 1.528,1.185 1.852,3.004 2.229,5.111 0.11,0.615 0.163,1.156 0.21,1.633 0.089,0.909 0.152,1.428 0.418,1.533 0.251,0.101 0.691,-0.062 1.527,-0.441 0.819,-0.371 1.411,-0.64 1.932,-1.186 0.869,-0.911 0.968,-2.032 1.083,-3.329 0.016,-0.187 0.035,-0.401 -0.082,-2.627 -0.135,-2.572 -0.195,-3.088 -0.288,-3.587 -0.273,-1.452 -0.398,-2.115 -0.91,-2.552 -0.816,-0.696 -2.137,-0.742 -2.772,-0.765 -1.679,-0.059 -2.342,0.024 -2.379,0.029 -0.371,0.052 -1.239,0.171 -1.876,-0.337 l -0.095,-0.084 c -0.571,-0.547 -0.685,-1.563 -0.249,-2.219 0.32,-0.482 0.854,-0.651 1.795,-0.813 0.811,-0.138 1.59,-0.271 2.534,-0.271 0.427,0 0.888,0.027 1.4,0.093 0.942,0.122 2.009,0.261 3.187,0.9 0.453,0.246 1.396,0.758 2.109,1.789 0.476,0.688 0.723,1.43 0.887,1.922 0.069,0.209 0.202,0.641 0.32,1.195 0.014,0.062 0.113,0.537 0.179,1.097 0.218,1.858 0.168,4.239 0.166,4.339 C 0.378,-2.324 0.348,-0.919 0,0"
       style="fill:#352727;fill-opacity:1;fill-rule:nonzero;stroke:none"
       id="path430" /></g></svg>
