<?xml version="1.0" encoding="UTF-8" standalone="no"?>
<!-- Created with Inkscape (http://www.inkscape.org/) -->

<svg
   version="1.1"
   id="svg132"
   width="310.4765"
   height="75.965332"
   viewBox="0 0 310.4765 75.965332"
   sodipodi:docname="Landing_portafolio_Ciom.ai"
   xmlns:inkscape="http://www.inkscape.org/namespaces/inkscape"
   xmlns:sodipodi="http://sodipodi.sourceforge.net/DTD/sodipodi-0.dtd"
   xmlns="http://www.w3.org/2000/svg"
   xmlns:svg="http://www.w3.org/2000/svg">
  <defs
     id="defs136">
    <clipPath
       clipPathUnits="userSpaceOnUse"
       id="clipPath6998">
      <g
         id="g7002"
         transform="translate(-330.3472,-53.394)">
        <path
           d="M 0,5023.274 H 1920 V 0 H 0 Z"
           id="path7000" />
      </g>
    </clipPath>
    <clipPath
       clipPathUnits="userSpaceOnUse"
       id="clipPath7004">
      <g
         id="g7008"
         transform="translate(-301.2469,-69.1942)">
        <path
           d="M 0,5023.274 H 1920 V 0 H 0 Z"
           id="path7006" />
      </g>
    </clipPath>
    <clipPath
       clipPathUnits="userSpaceOnUse"
       id="clipPath7010">
      <g
         id="g7014"
         transform="translate(-360.7493,-62.2764)">
        <path
           d="M 0,5023.274 H 1920 V 0 H 0 Z"
           id="path7012" />
      </g>
    </clipPath>
    <clipPath
       clipPathUnits="userSpaceOnUse"
       id="clipPath7016">
      <g
         id="g7020"
         transform="translate(-331.8166,-77.7545)">
        <path
           d="M 0,5023.274 H 1920 V 0 H 0 Z"
           id="path7018" />
      </g>
    </clipPath>
    <clipPath
       clipPathUnits="userSpaceOnUse"
       id="clipPath7022">
      <g
         id="g7026"
         transform="translate(-339.0061,-65.8369)">
        <path
           d="M 0,5023.274 H 1920 V 0 H 0 Z"
           id="path7024" />
      </g>
    </clipPath>
    <clipPath
       clipPathUnits="userSpaceOnUse"
       id="clipPath7028">
      <g
         id="g7032"
         transform="translate(-280.2496,-73.6327)">
        <path
           d="M 0,5023.274 H 1920 V 0 H 0 Z"
           id="path7030" />
      </g>
    </clipPath>
    <clipPath
       clipPathUnits="userSpaceOnUse"
       id="clipPath7034">
      <g
         id="g7038">
        <path
           d="M 0,5023.274 H 1920 V 0 H 0 Z"
           id="path7036" />
      </g>
    </clipPath>
    <clipPath
       clipPathUnits="userSpaceOnUse"
       id="clipPath7040">
      <g
         id="g7044"
         transform="translate(-253.3683,-67.6383)">
        <path
           d="M 0,5023.274 H 1920 V 0 H 0 Z"
           id="path7042" />
      </g>
    </clipPath>
    <clipPath
       clipPathUnits="userSpaceOnUse"
       id="clipPath7046">
      <g
         id="g7050"
         transform="translate(-231.9873,-62.2394)">
        <path
           d="M 0,5023.274 H 1920 V 0 H 0 Z"
           id="path7048" />
      </g>
    </clipPath>
    <clipPath
       clipPathUnits="userSpaceOnUse"
       id="clipPath7052">
      <g
         id="g7056"
         transform="translate(-191.1315,-68.432)">
        <path
           d="M 0,5023.274 H 1920 V 0 H 0 Z"
           id="path7054" />
      </g>
    </clipPath>
    <clipPath
       clipPathUnits="userSpaceOnUse"
       id="clipPath7058">
      <g
         id="g7062"
         transform="translate(-169.2176,-63.9859)">
        <path
           d="M 0,5023.274 H 1920 V 0 H 0 Z"
           id="path7060" />
      </g>
    </clipPath>
    <clipPath
       clipPathUnits="userSpaceOnUse"
       id="clipPath7064">
      <g
         id="g7068">
        <path
           d="M 0,5023.274 H 1920 V 0 H 0 Z"
           id="path7066" />
      </g>
    </clipPath>
    <clipPath
       clipPathUnits="userSpaceOnUse"
       id="clipPath7070">
      <g
         id="g7074"
         transform="translate(-151.7831,-55.2527)">
        <path
           d="M 0,5023.274 H 1920 V 0 H 0 Z"
           id="path7072" />
      </g>
    </clipPath>
  </defs>
  <sodipodi:namedview
     id="namedview134"
     pagecolor="#505050"
     bordercolor="#ffffff"
     borderopacity="1"
     inkscape:showpageshadow="0"
     inkscape:pageopacity="0"
     inkscape:pagecheckerboard="1"
     inkscape:deskcolor="#505050"
     showgrid="false" />
  <g
     id="g140"
     inkscape:groupmode="layer"
     inkscape:label="Page 1"
     transform="matrix(1.3333333,0,0,-1.3333333,-172.2148,125.51121)">
    <g
       id="g624">
      <g
         id="g638"
         transform="translate(151.7831,55.2527)"
         clip-path="url(#clipPath7070)">
        <path
           d="m 0,0 c -1.375,-0.635 -4.258,-1.27 -7.896,-1.27 -8.427,0 -14.726,4.763 -14.726,13.576 0,8.416 6.343,14.053 15.614,14.053 3.681,0 6.076,-0.715 7.097,-1.191 L -0.887,22.35 c -1.419,0.635 -3.504,1.111 -5.988,1.111 -7.009,0 -11.666,-4.009 -11.666,-11.036 0,-6.59 4.213,-10.758 11.444,-10.758 2.395,0 4.791,0.437 6.343,1.111 z"
           style="fill:#dfdfdf;fill-opacity:1;fill-rule:nonzero;stroke:none"
           id="path640" />
      </g>
      <path
         d="m 156.398,73.633 h 3.904 V 54.419 h -3.904 z m 4.347,5.398 c 0,-1.19 -0.932,-2.143 -2.484,-2.143 -1.42,0 -2.351,0.953 -2.351,2.143 0,1.191 0.976,2.184 2.44,2.184 1.419,0 2.395,-0.953 2.395,-2.184"
         style="fill:#dfdfdf;fill-opacity:1;fill-rule:nonzero;stroke:none"
         id="path642"
         clip-path="url(#clipPath7064)" />
      <g
         id="g644"
         transform="translate(169.2176,63.9859)"
         clip-path="url(#clipPath7058)">
        <path
           d="m 0,0 c 0,-4.208 2.661,-7.384 6.476,-7.384 3.726,0 6.52,3.137 6.52,7.463 0,3.256 -1.818,7.344 -6.431,7.344 C 1.996,7.423 0,3.612 0,0 m 16.989,0.199 c 0,-7.107 -5.545,-10.203 -10.69,-10.203 -5.767,0 -10.291,3.811 -10.291,9.885 0,6.391 4.746,10.163 10.646,10.163 6.165,0 10.335,-4.01 10.335,-9.845"
           style="fill:#dfdfdf;fill-opacity:1;fill-rule:nonzero;stroke:none"
           id="path646" />
      </g>
      <g
         id="g648"
         transform="translate(191.1315,68.432)"
         clip-path="url(#clipPath7052)">
        <path
           d="M 0,0 C 0,2.025 -0.088,3.612 -0.177,5.201 H 3.238 L 3.415,2.064 h 0.134 c 1.197,1.826 3.194,3.534 6.787,3.534 2.883,0 5.101,-1.588 6.032,-3.851 h 0.089 c 0.664,1.111 1.553,1.905 2.439,2.5 1.287,0.874 2.662,1.351 4.702,1.351 2.883,0 7.097,-1.668 7.097,-8.337 V -14.013 H 26.88 v 10.837 c 0,3.732 -1.552,5.915 -4.657,5.915 -2.262,0 -3.948,-1.469 -4.657,-3.136 -0.178,-0.516 -0.311,-1.112 -0.311,-1.747 V -14.013 H 13.44 v 11.512 c 0,3.057 -1.508,5.24 -4.479,5.24 -2.396,0 -4.215,-1.747 -4.836,-3.493 -0.222,-0.477 -0.31,-1.112 -0.31,-1.707 V -14.013 H 0 Z"
           style="fill:#dfdfdf;fill-opacity:1;fill-rule:nonzero;stroke:none"
           id="path650" />
      </g>
      <g
         id="g652"
         transform="translate(231.9873,62.2394)"
         clip-path="url(#clipPath7046)">
        <path
           d="m 0,0 c 0,-0.516 0.043,-0.993 0.177,-1.429 0.71,-2.422 3.061,-4.089 5.856,-4.089 4.124,0 6.52,3.017 6.52,7.423 0,3.811 -2.262,7.106 -6.388,7.106 C 3.504,9.011 0.975,7.344 0.266,4.724 0.132,4.287 0,3.771 0,3.334 Z m -3.86,5.121 c 0,2.461 -0.088,4.446 -0.177,6.272 h 3.46 l 0.222,-3.295 h 0.088 c 1.554,2.342 4.126,3.692 7.629,3.692 5.235,0 9.138,-3.93 9.138,-9.726 0,-6.907 -4.746,-10.321 -9.802,-10.321 -2.839,0 -5.323,1.111 -6.61,3.017 H 0 v -10.441 h -3.86 z"
           style="fill:#dfdfdf;fill-opacity:1;fill-rule:nonzero;stroke:none"
           id="path654" />
      </g>
      <g
         id="g656"
         transform="translate(253.3683,67.6383)"
         clip-path="url(#clipPath7040)">
        <path
           d="M 0,0 C 0,2.263 -0.044,4.208 -0.177,5.994 H 3.238 L 3.415,2.183 h 0.134 c 0.976,2.581 3.37,4.208 5.988,4.208 0.399,0 0.71,-0.039 1.064,-0.079 V 3.017 C 10.202,3.096 9.803,3.096 9.271,3.096 6.521,3.096 4.57,1.27 4.036,-1.35 3.948,-1.826 3.903,-2.422 3.903,-2.978 V -13.219 H 0 Z"
           style="fill:#dfdfdf;fill-opacity:1;fill-rule:nonzero;stroke:none"
           id="path658" />
      </g>
      <path
         d="m 268.051,73.633 h 3.904 V 54.419 h -3.904 z m 4.347,5.398 c 0,-1.19 -0.932,-2.143 -2.484,-2.143 -1.419,0 -2.35,0.953 -2.35,2.143 0,1.191 0.974,2.184 2.439,2.184 1.419,0 2.395,-0.953 2.395,-2.184"
         style="fill:#dfdfdf;fill-opacity:1;fill-rule:nonzero;stroke:none"
         id="path660"
         clip-path="url(#clipPath7034)" />
      <g
         id="g662"
         transform="translate(280.2496,73.6327)"
         clip-path="url(#clipPath7028)">
        <path
           d="m 0,0 3.06,-4.129 c 0.844,-1.072 1.509,-2.024 2.219,-3.096 h 0.088 c 0.71,1.111 1.42,2.104 2.174,3.136 L 10.513,0 h 4.258 l -7.319,-9.29 7.496,-9.924 h -4.391 l -3.194,4.327 c -0.843,1.112 -1.552,2.184 -2.306,3.335 H 4.969 c -0.71,-1.151 -1.42,-2.184 -2.263,-3.335 l -3.105,-4.327 H -4.702 L 2.927,-9.408 -4.347,0 Z"
           style="fill:#dfdfdf;fill-opacity:1;fill-rule:nonzero;stroke:none"
           id="path664" />
      </g>
      <g
         id="g666"
         transform="translate(339.0061,65.8369)"
         clip-path="url(#clipPath7022)">
        <path
           d="m 0,0 c 0,3.965 -3.516,7.191 -7.838,7.191 -4.322,0 -7.837,-3.226 -7.837,-7.191 0,-3.965 3.515,-7.191 7.837,-7.191 C -3.516,-7.191 0,-3.965 0,0"
           style="fill:#dfdfdf;fill-opacity:1;fill-rule:nonzero;stroke:none"
           id="path668" />
      </g>
      <g
         id="g670"
         transform="translate(331.8166,77.7545)"
         clip-path="url(#clipPath7016)">
        <path
           d="m 0,0 c 0.496,-1.217 1.161,-2.027 1.513,-2.4 0.728,-0.777 1.457,-1.224 2.042,-1.584 0.482,-0.295 0.744,-0.443 1.119,-0.587 0.129,-0.05 0.252,-0.091 0.375,-0.133 0.259,-0.088 0.504,-0.17 0.816,-0.342 0.006,-0.003 0.179,-0.099 0.354,-0.219 1.319,-0.902 2.03,-3.271 2.037,-3.294 0.189,-0.642 0.267,-1.13 0.33,-1.522 0.106,-0.665 0.191,-1.191 0.786,-1.486 0.235,-0.116 0.497,-0.167 0.761,-0.167 0.563,0 1.14,0.231 1.506,0.556 0.643,0.569 0.629,1.338 0.612,2.403 l -0.003,0.155 c -0.032,2.005 -0.047,2.921 -0.069,3.15 -0.003,0.022 -0.211,2.24 -0.174,5.013 0.03,2.216 0.211,3.044 0.806,3.695 0.46,0.503 1.027,0.786 1.252,0.885 0.666,0.296 1.318,0.331 2.731,0.381 0.239,0.008 0.324,0.007 0.631,0.006 0.272,-0.003 0.712,-0.006 1.565,-0.006 l 1.278,0.004 c 0.291,0.001 0.391,0.003 0.644,-0.004 1.265,-0.03 1.901,-0.045 2.612,-0.213 0.797,-0.188 1.373,-0.324 1.828,-0.729 0.634,-0.563 0.728,-1.393 0.853,-2.933 0.048,-0.609 0.046,-1.107 0.044,-1.507 -0.005,-0.877 -0.008,-1.51 0.585,-2.034 0.446,-0.392 1.242,-0.706 1.929,-0.475 1.636,0.556 1.712,3.888 1.045,6.032 C 29.57,3.412 29.011,5.21 27.191,6.466 26.361,7.04 25.473,7.313 24.689,7.554 L 24.588,7.585 C 23.419,7.946 22.436,8.065 21.85,8.135 20.977,8.242 20.323,8.258 19.493,8.279 18.629,8.299 17.769,8.287 16.943,8.241 16.32,8.207 15.766,8.157 15.491,8.126 14.599,8.026 12.228,7.762 10.726,6.541 9.228,5.322 8.951,3.496 8.629,1.382 8.535,0.763 8.496,0.22 8.462,-0.259 8.396,-1.167 8.346,-1.686 8.087,-1.796 7.841,-1.904 7.395,-1.749 6.54,-1.385 5.714,-1.032 5.117,-0.777 4.583,-0.243 3.691,0.65 3.563,1.768 3.415,3.063 3.393,3.248 3.369,3.458 3.427,5.691 c 0.069,2.57 0.114,3.089 0.195,3.591 0.235,1.457 0.342,2.123 0.842,2.57 0.798,0.713 2.116,0.788 2.751,0.824 1.677,0.095 2.342,0.027 2.38,0.023 0.372,-0.042 1.242,-0.144 1.864,0.377 l 0.095,0.088 c 0.558,0.559 0.646,1.578 0.192,2.224 -0.332,0.474 -0.87,0.632 -1.81,0.772 -1.183,0.176 -2.302,0.341 -3.944,0.092 -0.937,-0.142 -2,-0.304 -3.16,-0.968 C 2.385,15.028 1.455,14.495 0.769,13.449 0.311,12.751 0.083,12.004 -0.068,11.509 -0.132,11.298 -0.254,10.861 -0.356,10.311 -0.368,10.248 -0.455,9.769 -0.507,9.205 -0.677,7.344 -0.566,4.963 -0.56,4.863 -0.439,2.314 -0.372,0.91 0,0"
           style="fill:#dfdfdf;fill-opacity:1;fill-rule:nonzero;stroke:none"
           id="path672" />
      </g>
      <g
         id="g674"
         transform="translate(360.7493,62.2764)"
         clip-path="url(#clipPath7010)">
        <path
           d="m 0,0 c -0.283,0.408 -0.871,1.256 -2.015,1.877 -0.754,0.409 -1.566,0.613 -2.107,0.748 -0.227,0.058 -0.699,0.167 -1.309,0.259 -0.077,0.011 -0.59,0.087 -1.194,0.131 -2.034,0.149 -4.632,0.04 -4.743,0.036 -2.989,-0.127 -4.351,-0.197 -5.291,-0.519 -1.317,-0.452 -2.199,-1.058 -2.608,-1.379 -0.85,-0.668 -1.338,-1.335 -1.731,-1.871 -0.326,-0.444 -0.488,-0.687 -0.647,-1.034 -0.055,-0.119 -0.1,-0.232 -0.146,-0.345 -0.098,-0.244 -0.182,-0.454 -0.367,-0.735 -0.004,-0.006 -0.106,-0.161 -0.235,-0.319 -0.989,-1.213 -3.607,-1.874 -3.633,-1.88 -0.71,-0.175 -1.248,-0.248 -1.681,-0.308 -0.737,-0.1 -1.268,-0.173 -1.589,-0.714 -0.421,-0.713 -0.106,-1.665 0.44,-2.174 0.607,-0.565 1.432,-0.553 2.571,-0.534 l 0.096,0.002 c 2.244,0.037 3.268,0.053 3.518,0.074 0.023,0.003 2.449,0.2 5.507,0.174 2.458,-0.02 3.381,-0.186 4.113,-0.739 0.547,-0.414 0.86,-0.928 0.968,-1.128 0.316,-0.59 0.354,-1.144 0.415,-2.45 0.009,-0.215 0.009,-0.292 0.007,-0.568 -0.002,-0.248 -0.004,-0.65 -0.002,-1.432 l 0.008,-1.156 c 0.004,-0.269 0.005,-0.36 -0.001,-0.593 -0.029,-1.146 -0.044,-1.721 -0.22,-2.355 -0.201,-0.717 -0.346,-1.235 -0.78,-1.645 -0.629,-0.593 -1.553,-0.683 -3.266,-0.803 -0.676,-0.047 -1.221,-0.045 -1.663,-0.046 -0.972,10e-4 -1.609,0.003 -2.163,-0.524 -0.447,-0.424 -0.801,-1.187 -0.525,-1.857 0.39,-0.948 1.915,-1.31 3.559,-1.31 1.026,0 2.098,0.141 2.969,0.369 0.834,0.219 2.785,0.729 4.154,2.39 0.632,0.767 0.944,1.62 1.195,2.306 l 0.033,0.091 c 0.393,1.071 0.524,1.978 0.601,2.52 0.114,0.798 0.129,1.393 0.15,2.163 0.02,0.785 0.004,1.571 -0.049,2.339 -0.04,0.57 -0.097,1.077 -0.132,1.33 -0.113,0.822 -0.413,3.005 -1.77,4.384 -1.328,1.352 -3.316,1.598 -5.616,1.882 -0.669,0.083 -1.269,0.117 -1.787,0.147 -0.862,0.049 -1.605,0.091 -1.735,0.342 -0.105,0.205 0.127,0.693 0.447,1.321 0.381,0.75 0.657,1.291 1.237,1.778 0.991,0.829 2.232,0.951 3.67,1.092 0.205,0.021 0.438,0.045 2.896,-0.003 2.826,-0.054 3.397,-0.094 3.953,-0.167 1.57,-0.206 2.358,-0.31 2.864,-0.777 0.767,-0.709 0.852,-1.889 0.892,-2.456 0.109,-1.516 0.038,-2.116 0.034,-2.154 -0.043,-0.323 -0.158,-1.18 0.435,-1.765 l 0.097,-0.088 c 0.67,-0.552 1.725,-0.517 2.319,-0.165 0.521,0.305 0.701,0.828 0.853,1.692 0.19,1.089 0.37,2.119 0.088,3.632 C 0.923,-2.05 0.741,-1.07 0,0"
           style="fill:#dfdfdf;fill-opacity:1;fill-rule:nonzero;stroke:none"
           id="path676" />
      </g>
      <g
         id="g678"
         transform="translate(301.2469,69.1942)"
         clip-path="url(#clipPath7004)">
        <path
           d="m 0,0 c 0.277,-0.411 0.855,-1.267 1.99,-1.899 0.751,-0.419 1.561,-0.631 2.097,-0.772 0.227,-0.06 0.698,-0.175 1.301,-0.272 0.068,-0.012 0.586,-0.095 1.197,-0.146 1.042,-0.088 2.235,-0.11 3.164,-0.11 0.881,0 1.524,0.02 1.578,0.021 2.781,0.087 4.313,0.136 5.298,0.461 0.977,0.323 1.909,0.802 2.625,1.348 0.86,0.66 1.357,1.321 1.756,1.852 0.331,0.44 0.496,0.681 0.66,1.026 0.057,0.119 0.104,0.233 0.151,0.346 0.101,0.242 0.188,0.451 0.376,0.728 0.004,0.006 0.109,0.16 0.24,0.317 1.006,1.202 3.632,1.833 3.658,1.839 0.713,0.168 1.252,0.236 1.686,0.29 0.737,0.092 1.27,0.159 1.596,0.696 0.431,0.707 0.13,1.663 -0.41,2.178 -0.6,0.573 -1.375,0.564 -2.566,0.564 C 24.09,8.454 23.038,8.449 22.785,8.431 22.76,8.429 20.314,8.258 17.275,8.318 c -2.457,0.048 -3.378,0.224 -4.102,0.786 -0.545,0.422 -0.846,0.936 -0.952,1.138 -0.31,0.595 -0.339,1.149 -0.382,2.454 -0.007,0.215 -0.005,0.292 0,0.567 0.005,0.248 0.013,0.65 0.021,1.432 l 0.007,1.173 c 10e-4,0.257 10e-4,0.349 0.01,0.576 0.044,1.146 0.067,1.721 0.252,2.354 0.211,0.715 0.362,1.232 0.803,1.636 0.637,0.586 1.561,0.666 3.276,0.767 0.676,0.039 1.218,0.033 1.663,0.027 0.97,-0.013 1.608,-0.021 2.169,0.499 0.453,0.42 0.818,1.178 0.551,1.851 -0.614,1.547 -4.243,1.582 -6.517,1.014 C 13.238,24.383 11.28,23.894 9.89,22.25 9.245,21.488 8.922,20.636 8.629,19.867 8.222,18.802 8.08,17.895 7.995,17.354 7.87,16.552 7.846,15.953 7.816,15.193 7.785,14.405 7.791,13.597 7.834,12.855 7.866,12.284 7.916,11.776 7.947,11.522 8.049,10.699 8.319,8.513 9.658,7.117 10.97,5.751 12.954,5.483 15.25,5.173 15.919,5.083 16.517,5.042 17.035,5.006 17.895,4.948 18.639,4.897 18.764,4.646 18.866,4.44 18.628,3.955 18.302,3.334 17.91,2.586 17.626,2.046 17.038,1.565 16.037,0.747 14.794,0.639 13.355,0.513 13.146,0.495 12.91,0.474 10.457,0.549 7.635,0.635 7.063,0.681 6.507,0.761 4.939,0.984 4.152,1.097 3.655,1.568 2.897,2.287 2.828,3.467 2.795,4.034 2.706,5.551 2.786,6.151 2.79,6.182 2.839,6.506 2.967,7.364 2.383,7.954 l -0.1,0.094 C 1.622,8.606 0.566,8.582 -0.034,8.24 -0.559,7.94 -0.746,7.419 -0.908,6.557 -1.114,5.47 -1.307,4.443 -1.046,2.928 -0.897,2.063 -0.729,1.081 0,0"
           style="fill:#dfdfdf;fill-opacity:1;fill-rule:nonzero;stroke:none"
           id="path680" />
      </g>
      <g
         id="g682"
         transform="translate(330.3472,53.394)"
         clip-path="url(#clipPath6998)">
        <path
           d="m 0,0 c -0.342,0.903 -0.858,1.767 -1.451,2.433 -0.709,0.792 -1.425,1.255 -2,1.628 -0.477,0.307 -0.735,0.46 -1.104,0.612 -0.128,0.052 -0.25,0.097 -0.371,0.14 -0.258,0.094 -0.501,0.181 -0.808,0.36 -0.007,0.004 -0.176,0.103 -0.347,0.226 -1.296,0.93 -1.945,3.313 -1.951,3.337 -0.171,0.645 -0.237,1.134 -0.289,1.527 -0.09,0.669 -0.16,1.196 -0.749,1.505 -0.729,0.383 -1.729,0.127 -2.276,-0.339 -0.656,-0.554 -0.663,-1.323 -0.673,-2.389 -0.021,-2.106 -0.03,-3.068 -0.015,-3.305 0.002,-0.022 0.152,-2.246 0.043,-5.015 -0.087,-2.214 -0.289,-3.039 -0.902,-3.678 -0.469,-0.489 -1.048,-0.763 -1.274,-0.858 -0.675,-0.281 -1.328,-0.302 -2.742,-0.322 -0.238,-0.002 -0.322,0 -0.627,0.009 -0.271,0.008 -0.712,0.021 -1.569,0.039 l -1.273,0.024 c -0.292,0.005 -0.392,0.006 -0.657,0.018 -1.261,0.058 -1.893,0.087 -2.597,0.269 -0.791,0.205 -1.363,0.354 -1.807,0.768 -0.618,0.576 -0.691,1.408 -0.775,2.95 -0.033,0.61 -0.018,1.108 -0.005,1.509 0.028,0.876 0.048,1.509 -0.533,2.045 -0.437,0.404 -1.224,0.737 -1.917,0.518 -1.649,-0.52 -1.811,-3.849 -1.201,-6.006 0.22,-0.773 0.733,-2.583 2.519,-3.879 0.817,-0.591 1.697,-0.883 2.473,-1.142 l 0.1,-0.033 c 1.153,-0.383 2.137,-0.525 2.724,-0.61 0.876,-0.126 1.527,-0.155 2.351,-0.193 0.861,-0.04 1.719,-0.047 2.552,-0.018 0.622,0.021 1.177,0.058 1.458,0.084 0.894,0.08 3.271,0.294 4.801,1.481 1.528,1.185 1.852,3.004 2.229,5.111 0.11,0.615 0.163,1.156 0.21,1.633 0.089,0.908 0.152,1.427 0.418,1.533 0.251,0.101 0.691,-0.062 1.527,-0.441 0.819,-0.371 1.411,-0.64 1.932,-1.186 0.869,-0.912 0.968,-2.032 1.083,-3.329 0.016,-0.188 0.035,-0.401 -0.082,-2.627 -0.135,-2.572 -0.195,-3.088 -0.288,-3.587 -0.273,-1.452 -0.398,-2.115 -0.91,-2.552 -0.816,-0.696 -2.137,-0.742 -2.772,-0.765 -1.679,-0.059 -2.342,0.024 -2.379,0.029 -0.371,0.052 -1.239,0.171 -1.876,-0.338 l -0.095,-0.083 c -0.571,-0.547 -0.685,-1.563 -0.249,-2.219 0.32,-0.482 0.854,-0.652 1.795,-0.813 0.811,-0.138 1.59,-0.272 2.534,-0.272 0.427,0 0.888,0.028 1.4,0.094 0.942,0.122 2.009,0.26 3.187,0.9 0.453,0.246 1.396,0.758 2.109,1.789 0.476,0.687 0.723,1.43 0.887,1.922 0.069,0.209 0.202,0.641 0.32,1.195 0.014,0.062 0.113,0.537 0.179,1.097 0.218,1.858 0.168,4.239 0.166,4.339 C 0.378,-2.324 0.348,-0.919 0,0"
           style="fill:#dfdfdf;fill-opacity:1;fill-rule:nonzero;stroke:none"
           id="path684" />
      </g>
    </g>
  </g>
</svg>
