<?xml version="1.0" encoding="UTF-8" standalone="no"?>
<!-- Created with Inkscape (http://www.inkscape.org/) -->

<svg
   version="1.1"
   id="svg132"
   width="2560"
   height="1459.1927"
   viewBox="0 0 2560 1459.1928"
   sodipodi:docname="Landing_portafolio_Ciom.ai"
   xmlns:inkscape="http://www.inkscape.org/namespaces/inkscape"
   xmlns:sodipodi="http://sodipodi.sourceforge.net/DTD/sodipodi-0.dtd"
   xmlns="http://www.w3.org/2000/svg"
   xmlns:svg="http://www.w3.org/2000/svg">
  <defs
     id="defs136">
    <clipPath
       clipPathUnits="userSpaceOnUse"
       id="clipPath330">
      <path
         d="M 0,3682.112 H 1920 V 5023.274 H 0 Z"
         id="path328" />
    </clipPath>
    <clipPath
       clipPathUnits="userSpaceOnUse"
       id="clipPath342">
      <path
         d="m 0,5023.274 v -991.997 c 2.192,-1.069 4.4,-2.096 6.628,-3.079 v 0 c 86.287,-38.116 188.364,-22.269 273.879,17.552 v 0 c 85.515,39.818 158.629,101.365 233.922,158.192 v 0 c 75.291,56.829 156.226,110.64 248.358,130.887 v 0 c 137.158,30.142 279.085,-17.989 406.162,-77.761 v 0 c 127.076,-59.77 251.018,-132.81 389.368,-156.905 v 0 c 121.104,-21.091 246.648,-2.555 361.683,41.906 v 0 881.205 z"
         id="path340" />
    </clipPath>
  </defs>
  <sodipodi:namedview
     id="namedview134"
     pagecolor="#505050"
     bordercolor="#ffffff"
     borderopacity="1"
     inkscape:showpageshadow="0"
     inkscape:pageopacity="0"
     inkscape:pagecheckerboard="1"
     inkscape:deskcolor="#505050"
     showgrid="false" />
  <g
     id="g140"
     inkscape:groupmode="layer"
     inkscape:label="Page 1"
     transform="matrix(1.3333333,0,0,-1.3333333,0,6697.6985)">
    <g
       id="g324"
       inkscape:export-filename="..\..\web-portafolio-ciomprix\frontend\public\assets\img\landing_bgmini.svg"
       inkscape:export-xdpi="96"
       inkscape:export-ydpi="96">
      <g
         id="g326"
         clip-path="url(#clipPath330)">
        <g
           id="g332"
           transform="translate(-345.3247,4180.7979)">
          <path
             d="m 0,0 c -31.268,-88.999 28.896,-192.046 115.184,-230.161 86.289,-38.116 188.364,-22.269 273.879,17.55 85.515,39.82 158.629,101.366 233.921,158.194 75.293,56.829 156.227,110.639 248.36,130.887 137.158,30.142 279.085,-17.989 406.161,-77.76 127.076,-59.771 251.019,-132.812 389.367,-156.906 143.605,-25.01 293.441,5.696 424.608,69.28 131.168,63.583 244.999,158.612 345.533,264.163 129.555,136.021 243.49,302.92 251.149,490.609 10.285,252.02 -180.128,478.485 -408.876,584.759 -228.748,106.274 -489.341,115.738 -741.564,113.875 -505.7,-3.733 -1011.114,-45.624 -1510.528,-125.2 -65.259,-10.398 -133.177,-22.581 -186.085,-62.174 -83.393,-62.406 -108.23,-175.939 -114.561,-279.905 -18.6,-305.445 74.306,-616.468 257.389,-861.669"
             style="fill:#8d3487;fill-opacity:1;fill-rule:nonzero;stroke:none"
             id="path334" />
        </g>
      </g>
    </g>
    <g
       id="g336">
      <g
         id="g338"
         clip-path="url(#clipPath342)">
        <g
           id="g344"
           transform="translate(-108.5564,4258.3594)">
          <path
             d="m 0,0 c -31.268,-88.999 28.896,-192.046 115.184,-230.161 86.289,-38.115 188.364,-22.269 273.879,17.551 85.515,39.819 158.629,101.365 233.921,158.193 75.293,56.829 156.227,110.639 248.36,130.887 137.158,30.142 279.085,-17.989 406.161,-77.76 127.076,-59.771 251.019,-132.812 389.367,-156.906 143.605,-25.01 293.441,5.696 424.608,69.28 131.168,63.584 245,158.613 345.533,264.163 129.555,136.021 243.49,302.92 251.149,490.609 10.285,252.02 -180.128,478.485 -408.876,584.759 -228.748,106.275 -489.341,115.738 -741.564,113.875 -505.7,-3.733 -1011.114,-45.624 -1510.528,-125.2 -65.259,-10.398 -133.177,-22.581 -186.085,-62.174 -83.393,-62.406 -108.23,-175.939 -114.561,-279.905 -18.6,-305.445 74.306,-616.468 257.389,-861.669"
             style="fill:#0c92cf;fill-opacity:1;fill-rule:nonzero;stroke:none"
             id="path346" />
        </g>
      </g>
    </g>
  </g>
</svg>
