<?xml version="1.0" encoding="UTF-8" standalone="no"?>
<!-- Created with Inkscape (http://www.inkscape.org/) -->

<svg
   version="1.1"
   id="svg132"
   width="41.000549"
   height="37.503719"
   viewBox="0 0 41.000549 37.50372"
   sodipodi:docname="Landing_portafolio_Ciom.ai"
   xmlns:inkscape="http://www.inkscape.org/namespaces/inkscape"
   xmlns:sodipodi="http://sodipodi.sourceforge.net/DTD/sodipodi-0.dtd"
   xmlns="http://www.w3.org/2000/svg"
   xmlns:svg="http://www.w3.org/2000/svg">
  <defs
     id="defs136">
    <clipPath
       clipPathUnits="userSpaceOnUse"
       id="clipPath27968">
      <g
         id="g27974">
        <g
           id="g27972">
          <path
             d="M 0,5023.274 H 1920 V 0 H 0 Z"
             id="path27970" />
        </g>
      </g>
    </clipPath>
  </defs>
  <sodipodi:namedview
     id="namedview134"
     pagecolor="#505050"
     bordercolor="#ffffff"
     borderopacity="1"
     inkscape:showpageshadow="0"
     inkscape:pageopacity="0"
     inkscape:pagecheckerboard="1"
     inkscape:deskcolor="#505050"
     showgrid="false" />
  <g
     id="g140"
     inkscape:groupmode="layer"
     inkscape:label="Page 1"
     transform="matrix(1.3333333,0,0,-1.3333333,-387.64127,6653.345)">
    <path
       d="m 291.9031,4965.0801 c 0.277,-0.411 0.855,-1.267 1.99,-1.899 0.751,-0.419 1.561,-0.631 2.097,-0.772 0.227,-0.059 0.698,-0.175 1.301,-0.272 0.068,-0.012 0.586,-0.095 1.197,-0.146 1.042,-0.088 2.235,-0.11 3.164,-0.11 0.881,0 1.524,0.02 1.578,0.022 2.781,0.087 4.313,0.135 5.298,0.46 0.977,0.323 1.909,0.802 2.625,1.349 0.86,0.659 1.357,1.32 1.756,1.851 0.331,0.44 0.496,0.681 0.66,1.026 0.057,0.119 0.104,0.233 0.151,0.346 0.101,0.242 0.188,0.451 0.376,0.728 0.004,0.01 0.109,0.161 0.24,0.317 1.006,1.202 3.632,1.833 3.658,1.84 0.713,0.167 1.252,0.235 1.686,0.289 0.737,0.093 1.27,0.159 1.596,0.696 0.431,0.707 0.13,1.663 -0.41,2.179 -0.6,0.573 -1.375,0.564 -2.566,0.563 -2.307,-0.012 -3.359,-0.018 -3.612,-0.036 -0.025,0 -2.471,-0.172 -5.51,-0.113 -2.457,0.048 -3.378,0.224 -4.101,0.786 -0.546,0.422 -0.847,0.936 -0.953,1.139 -0.31,0.594 -0.339,1.148 -0.382,2.453 -0.007,0.216 -0.005,0.292 0,0.567 0.005,0.248 0.013,0.65 0.021,1.432 l 0.007,1.173 c 10e-4,0.257 10e-4,0.349 0.01,0.576 0.044,1.146 0.067,1.721 0.252,2.354 0.211,0.715 0.362,1.232 0.803,1.636 0.637,0.586 1.561,0.666 3.276,0.767 0.676,0.039 1.218,0.033 1.663,0.027 0.97,-0.013 1.608,-0.021 2.169,0.499 0.453,0.42 0.818,1.178 0.551,1.851 -0.614,1.547 -4.243,1.582 -6.517,1.014 -0.836,-0.208 -2.794,-0.697 -4.184,-2.342 -0.645,-0.762 -0.968,-1.613 -1.261,-2.383 -0.407,-1.065 -0.549,-1.971 -0.634,-2.513 -0.125,-0.801 -0.149,-1.4 -0.179,-2.161 -0.031,-0.788 -0.025,-1.596 0.018,-2.339 0.032,-0.57 0.082,-1.078 0.113,-1.332 0.102,-0.823 0.372,-3.009 1.711,-4.404 1.312,-1.367 3.296,-1.635 5.592,-1.945 0.669,-0.09 1.267,-0.131 1.785,-0.167 0.86,-0.058 1.604,-0.11 1.729,-0.36 0.102,-0.206 -0.136,-0.691 -0.462,-1.312 -0.392,-0.748 -0.676,-1.288 -1.264,-1.769 -1.001,-0.817 -2.244,-0.926 -3.683,-1.052 -0.209,-0.018 -0.445,-0.038 -2.898,0.036 -2.822,0.086 -3.394,0.132 -3.95,0.212 -1.568,0.223 -2.355,0.336 -2.852,0.807 -0.758,0.719 -0.827,1.899 -0.86,2.467 -0.089,1.516 -0.009,2.116 -0.005,2.147 0.049,0.324 0.177,1.182 -0.407,1.773 l -0.1,0.093 c -0.661,0.558 -1.717,0.535 -2.317,0.192 -0.525,-0.3 -0.712,-0.821 -0.874,-1.683 -0.206,-1.087 -0.399,-2.114 -0.138,-3.628 0.149,-0.866 0.317,-1.848 1.046,-2.929"
       style="fill:#606060;fill-opacity:1;fill-rule:nonzero;stroke:none;stroke-opacity:1"
       id="path426"
       clip-path="url(#clipPath27968)" />
  </g>
</svg>
