<?xml version="1.0" encoding="UTF-8" standalone="no"?>
<!-- Created with Inkscape (http://www.inkscape.org/) -->

<svg
   width="38.183655mm"
   height="38.161987mm"
   viewBox="0 0 38.183655 38.161987"
   version="1.1"
   id="svg5"
   xml:space="preserve"
   xmlns:inkscape="http://www.inkscape.org/namespaces/inkscape"
   xmlns:sodipodi="http://sodipodi.sourceforge.net/DTD/sodipodi-0.dtd"
   xmlns="http://www.w3.org/2000/svg"
   xmlns:svg="http://www.w3.org/2000/svg"><sodipodi:namedview
     id="namedview7"
     pagecolor="#505050"
     bordercolor="#ffffff"
     borderopacity="1"
     inkscape:showpageshadow="0"
     inkscape:pageopacity="0"
     inkscape:pagecheckerboard="1"
     inkscape:deskcolor="#505050"
     inkscape:document-units="mm"
     showgrid="false" /><defs
     id="defs2"><clipPath
       clipPathUnits="userSpaceOnUse"
       id="clipPath5217"><g
         id="g5221"
         transform="translate(-290.0373,-4069.6309)"><path
           d="M 0,5023.274 H 1920 V 0 H 0 Z"
           id="path5219" /></g></clipPath><clipPath
       clipPathUnits="userSpaceOnUse"
       id="clipPath5223"><g
         id="g5227"
         transform="translate(-254.6577,-4102.8291)"><path
           d="M 0,5023.274 H 1920 V 0 H 0 Z"
           id="path5225" /></g></clipPath><clipPath
       clipPathUnits="userSpaceOnUse"
       id="clipPath5229"><g
         id="g5233"
         transform="translate(-338.4465,-4102.876)"><path
           d="M 0,5023.274 H 1920 V 0 H 0 Z"
           id="path5231" /></g></clipPath><clipPath
       clipPathUnits="userSpaceOnUse"
       id="clipPath5235"><g
         id="g5239"
         transform="translate(-247.6753,-4088.834)"><path
           d="M 0,5023.274 H 1920 V 0 H 0 Z"
           id="path5237" /></g></clipPath><clipPath
       clipPathUnits="userSpaceOnUse"
       id="clipPath5241"><g
         id="g5245"
         transform="translate(-343.7219,-4087.1404)"><path
           d="M 0,5023.274 H 1920 V 0 H 0 Z"
           id="path5243" /></g></clipPath><clipPath
       clipPathUnits="userSpaceOnUse"
       id="clipPath5247"><g
         id="g5251"
         transform="translate(-247.6753,-4116.77)"><path
           d="M 0,5023.274 H 1920 V 0 H 0 Z"
           id="path5249" /></g></clipPath><clipPath
       clipPathUnits="userSpaceOnUse"
       id="clipPath5253"><g
         id="g5257"
         transform="translate(-341.9553,-4116.8984)"><path
           d="M 0,5023.274 H 1920 V 0 H 0 Z"
           id="path5255" /></g></clipPath><clipPath
       clipPathUnits="userSpaceOnUse"
       id="clipPath5259"><g
         id="g5263"
         transform="translate(-296.5521,-4113.3521)"><path
           d="M 0,5023.274 H 1920 V 0 H 0 Z"
           id="path5261" /></g></clipPath><clipPath
       clipPathUnits="userSpaceOnUse"
       id="clipPath5265"><g
         id="g5269"
         transform="translate(-317.5703,-4079.6716)"><path
           d="M 0,5023.274 H 1920 V 0 H 0 Z"
           id="path5267" /></g></clipPath></defs><g
     id="g568"
     transform="matrix(0.35277776,0,0,-0.35277778,27.120722,19.881412)"
     clip-path="url(#clipPath5265)"><path
       d="m 0,0 v -9.512 c 1.682,0.268 3.426,2.478 3.431,4.694 C 3.436,-2.615 2.053,-0.621 0,0 m -45.447,-9.543 v 4.779 4.779 c -2.068,-0.618 -3.469,-2.565 -3.49,-4.717 -0.022,-2.201 1.356,-4.17 3.49,-4.841 m 34.565,-19.847 c -0.948,0.102 -7.322,-4.844 -8.896,-6.78 2.542,-1.813 5.081,-3.624 7.781,-5.55 0.385,4.253 0.746,8.253 1.115,12.33 m -14.73,-6.694 c -2.687,2.241 -5.293,4.429 -7.924,6.587 -0.225,0.184 -0.616,0.165 -1.109,0.284 0.387,-4.249 0.755,-8.289 1.139,-12.511 2.743,1.96 5.275,3.769 7.894,5.64 m 2.858,2.167 c 2.753,2.295 5.421,4.52 8.145,6.79 -0.631,0.953 -1.198,1.877 -1.845,2.741 -0.174,0.233 -0.59,0.399 -0.896,0.401 -3.591,0.028 -7.183,0.03 -10.774,-0.003 -0.331,-0.002 -0.772,-0.205 -0.968,-0.463 -0.635,-0.831 -1.179,-1.731 -1.804,-2.673 2.705,-2.257 5.372,-4.482 8.142,-6.793 m -22.354,-14.446 h 44.707 c -0.458,2.81 -0.906,5.554 -1.368,8.386 1.161,0.192 2.251,0.373 3.417,0.565 0.521,-3.062 1.023,-6.014 1.521,-8.943 H 12 c -0.753,11.499 -11.372,18.962 -19.398,18.629 -0.553,-6.049 -1.107,-12.108 -1.675,-18.311 -0.418,0.269 -0.722,0.446 -1.006,0.649 -3.965,2.83 -7.937,5.647 -11.876,8.511 -0.609,0.443 -0.993,0.436 -1.594,0 -3.941,-2.861 -7.913,-5.68 -11.877,-8.51 -0.298,-0.212 -0.614,-0.397 -1.012,-0.653 -0.574,6.269 -1.129,12.333 -1.683,18.384 -9.399,-0.069 -18.771,-8.295 -19.386,-18.696 h 8.832 c 0.51,3 1.012,5.953 1.524,8.961 1.211,-0.212 2.274,-0.398 3.406,-0.596 -0.459,-2.823 -0.906,-5.568 -1.363,-8.376 m 3.151,52.312 V 2.79 c 0,-4.69 -0.005,-9.381 0.002,-14.072 0.008,-5.46 3.72,-9.185 9.166,-9.192 6.69,-0.008 13.379,-0.008 20.068,0 5.445,0.007 9.157,3.732 9.167,9.193 0.008,4.728 10e-4,9.455 10e-4,14.182 V 3.949 Z M -45.451,3.836 V 7.374 H -0.099 V 3.838 c 3.137,-0.825 5.351,-2.613 6.47,-5.592 1.742,-4.64 -0.775,-9.788 -5.529,-11.278 -0.76,-0.239 -1.057,-0.571 -1.231,-1.353 -1.211,-5.423 -5.748,-9.227 -11.3,-9.566 -0.205,-0.013 -0.41,-0.04 -0.667,-0.066 0.471,-1.259 1.2,-1.888 2.583,-1.905 3.429,-0.041 6.801,-0.472 10.037,-1.74 9.762,-3.827 15.997,-13.583 15.335,-24.157 h -76.704 c -0.23,3.282 0.118,6.525 1.312,9.594 3.713,9.535 10.649,14.977 20.872,16.106 1.047,0.115 2.106,0.237 3.154,0.201 1.369,-0.046 2.158,0.576 2.582,1.86 -0.887,0.127 -1.788,0.174 -2.645,0.392 -5.047,1.287 -8.154,4.496 -9.399,9.553 -0.088,0.36 -0.454,0.81 -0.79,0.925 -4.013,1.377 -6.439,4.566 -6.408,8.52 0.03,3.876 2.51,7.069 6.479,8.342 0.138,0.045 0.276,0.09 0.497,0.162"
       style="fill:#eb8a00;fill-opacity:1;fill-rule:nonzero;stroke:none"
       id="path570" /></g><g
     id="g572"
     transform="matrix(0.35277776,0,0,-0.35277778,19.705972,7.9996823)"
     clip-path="url(#clipPath5259)"><path
       d="M 0,0 C -0.017,0.946 -0.823,1.725 -1.767,1.708 -2.713,1.691 -3.49,0.887 -3.473,-0.059 -3.456,-1.006 -2.652,-1.785 -1.708,-1.768 -0.764,-1.75 0.017,-0.943 0,0 m 1.762,-19.21 c 0.28,1.143 0.499,2.206 0.803,3.243 0.922,3.15 2.877,5.648 5.001,8.076 3.494,3.993 3.873,9.789 1.072,14.307 -2.804,4.522 -8.172,6.705 -13.298,5.408 -9.205,-2.329 -12.418,-13.575 -5.781,-20.39 2.129,-2.187 3.709,-4.645 4.535,-7.575 0.282,-1 0.449,-2.033 0.667,-3.042 h 1.698 c 0.023,0.186 0.055,0.324 0.055,0.463 0.003,4.362 0.019,8.725 -0.027,13.087 -0.004,0.342 -0.373,0.807 -0.7,1 -2.169,1.28 -3.196,3.588 -2.571,5.936 0.613,2.304 2.677,3.901 5.045,3.901 2.368,0.001 4.434,-1.596 5.048,-3.899 0.625,-2.347 -0.37,-4.71 -2.594,-5.892 -0.597,-0.317 -0.719,-0.669 -0.716,-1.264 0.018,-4.18 0.008,-8.361 0.013,-12.542 10e-4,-0.273 0.052,-0.545 0.079,-0.817 z m 15.703,0.022 v 0.989 c 0,8.257 0.013,16.514 -0.003,24.77 -0.015,7.3 -5.305,12.583 -12.598,12.603 -4.328,0.012 -8.655,0.005 -12.983,0.001 -7.573,-0.007 -12.814,-5.247 -12.818,-12.821 -0.005,-8.112 -0.002,-16.223 -0.002,-24.334 v -1.208 h 12.058 c -0.062,0.445 -0.093,0.836 -0.173,1.217 -0.569,2.712 -1.926,4.964 -3.859,6.945 -3.604,3.695 -5.062,8.149 -4.345,13.273 0.918,6.55 6.074,11.934 12.563,13.165 C 1.903,16.663 8.588,13.575 11.91,7.741 15.222,1.923 14.49,-5.351 10.092,-10.356 9.421,-11.121 8.716,-11.863 8.113,-12.68 6.692,-14.602 5.721,-16.723 5.424,-19.188 Z m 3.491,-3.494 h -45.385 v 1.181 c 0,9.348 -0.005,18.696 0.002,28.044 0.006,9.261 6.864,16.112 16.131,16.124 4.51,0.005 9.019,0.02 13.528,-0.004 8.717,-0.048 15.681,-6.963 15.715,-15.658 0.037,-9.638 0.009,-19.277 0.009,-28.916 z"
       style="fill:#eb8a00;fill-opacity:1;fill-rule:nonzero;stroke:none"
       id="path574" /></g><g
     id="g576"
     transform="matrix(0.35277776,0,0,-0.35277778,35.723202,6.7486223)"
     clip-path="url(#clipPath5253)"><path
       d="M 0,0 C -0.047,-0.939 0.709,-1.774 1.652,-1.822 2.589,-1.87 3.426,-1.11 3.474,-0.168 3.521,0.771 2.763,1.605 1.82,1.653 0.881,1.701 0.047,0.944 0,0 m -20.902,-7.067 v 3.49 c 1.167,0 2.289,-0.065 3.397,0.032 0.453,0.039 1.019,0.32 1.286,0.676 0.934,1.248 1.723,2.604 2.65,3.858 0.247,0.336 0.785,0.635 1.196,0.643 2.759,0.056 5.521,0.04 8.281,0.02 0.588,-0.005 0.947,0.103 1.267,0.707 1.185,2.235 3.531,3.228 5.88,2.608 C 5.361,4.358 6.962,2.3 6.969,-0.064 6.977,-2.429 5.385,-4.506 3.091,-5.126 0.746,-5.76 -1.628,-4.769 -2.81,-2.561 c -0.309,0.576 -0.631,0.753 -1.246,0.744 -2.143,-0.033 -4.286,-0.04 -6.429,0.004 -0.635,0.013 -0.98,-0.225 -1.302,-0.733 -0.835,-1.319 -1.701,-2.619 -2.603,-3.893 -0.198,-0.281 -0.588,-0.591 -0.899,-0.601 -1.844,-0.056 -3.69,-0.027 -5.613,-0.027"
       style="fill:#eb8a00;fill-opacity:1;fill-rule:nonzero;stroke:none"
       id="path578" /></g><g
     id="g580"
     transform="matrix(0.35277776,0,0,-0.35277778,2.4633222,6.7939223)"
     clip-path="url(#clipPath5247)"><path
       d="M 0,0 C 0.026,0.942 -0.747,1.756 -1.693,1.782 -2.637,1.807 -3.448,1.036 -3.474,0.089 -3.499,-0.855 -2.728,-1.668 -1.782,-1.694 -0.841,-1.719 -0.026,-0.945 0,0 m 20.907,-3.449 v -3.489 c -1.925,0 -3.803,-0.024 -5.679,0.026 -0.281,0.007 -0.632,0.302 -0.814,0.56 -0.876,1.248 -1.741,2.506 -2.536,3.806 -0.384,0.629 -0.81,0.884 -1.562,0.863 C 8.319,-1.739 6.319,-1.737 4.323,-1.684 3.555,-1.664 3.124,-1.845 2.723,-2.576 1.468,-4.863 -1.273,-5.769 -3.665,-4.81 -5.99,-3.878 -7.369,-1.396 -6.887,0.99 -6.36,3.595 -4.096,5.415 -1.49,5.267 0.386,5.161 1.87,4.273 2.745,2.623 3.127,1.903 3.555,1.77 4.261,1.778 6.949,1.807 9.638,1.77 12.325,1.804 c 0.619,0.008 0.989,-0.187 1.317,-0.71 0.81,-1.291 1.711,-2.525 2.511,-3.822 0.352,-0.57 0.756,-0.768 1.411,-0.735 1.082,0.054 2.168,0.014 3.343,0.014"
       style="fill:#eb8a00;fill-opacity:1;fill-rule:nonzero;stroke:none"
       id="path582" /></g><g
     id="g584"
     transform="matrix(0.35277776,0,0,-0.35277778,36.346422,17.246582)"
     clip-path="url(#clipPath5241)"><path
       d="M 0,0 C 0.944,0.018 1.724,0.826 1.707,1.769 1.69,2.714 0.883,3.493 -0.061,3.476 -1.007,3.458 -1.784,2.653 -1.767,1.708 -1.749,0.761 -0.944,-0.017 0,0 m -22.68,3.563 v 3.405 c 1.917,0 3.796,0.026 5.673,-0.027 0.293,-0.009 0.661,-0.317 0.85,-0.588 1.728,-2.488 4.085,-3.371 7.031,-2.881 0.46,0.077 0.945,0.04 1.416,0.006 1.573,-0.116 2.825,-0.01 3.856,1.654 1.195,1.93 3.77,2.309 5.877,1.413 C 4.081,5.67 5.372,3.533 5.191,1.301 5.008,-0.955 3.358,-2.83 1.085,-3.364 c -2.13,-0.501 -4.402,0.414 -5.5,2.385 -0.441,0.791 -0.924,1.008 -1.774,0.991 -2.581,-0.054 -5.164,-0.041 -7.745,10e-4 -0.419,0.007 -1.006,0.163 -1.225,0.463 -1.806,2.469 -4.144,3.573 -7.199,3.02 -0.064,-0.012 -0.138,0.027 -0.322,0.067"
       style="fill:#eb8a00;fill-opacity:1;fill-rule:nonzero;stroke:none"
       id="path586" /></g><g
     id="g588"
     transform="matrix(0.35277776,0,0,-0.35277778,2.4633222,16.649122)"
     clip-path="url(#clipPath5235)"><path
       d="M 0,0 C 0.026,0.943 -0.747,1.757 -1.693,1.782 -2.637,1.808 -3.448,1.036 -3.474,0.089 -3.499,-0.855 -2.728,-1.668 -1.782,-1.694 -0.841,-1.719 -0.026,-0.944 0,0 m 20.905,5.281 v -3.49 c -1.228,0 -2.453,0.047 -3.67,-0.025 C 16.783,1.739 16.166,1.557 15.934,1.228 14.106,-1.361 11.633,-2.121 8.588,-1.733 7.156,-1.55 5.681,-1.739 4.228,-1.686 3.489,-1.658 3.105,-1.89 2.732,-2.567 c -1.259,-2.287 -4,-3.201 -6.393,-2.244 -2.33,0.932 -3.71,3.416 -3.224,5.806 0.529,2.608 2.8,4.43 5.408,4.271 C 0.444,5.149 1.92,4.216 2.813,2.514 3.12,1.928 3.455,1.77 4.065,1.778 c 2.218,0.03 4.437,-0.018 6.654,0.036 0.447,0.011 1.067,0.211 1.3,0.541 1.827,2.592 4.31,3.407 7.344,2.937 0.461,-0.072 0.943,-0.011 1.542,-0.011"
       style="fill:#eb8a00;fill-opacity:1;fill-rule:nonzero;stroke:none"
       id="path590" /></g><g
     id="g592"
     transform="matrix(0.35277776,0,0,-0.35277778,34.485382,11.695412)"
     clip-path="url(#clipPath5229)"><path
       d="M 0,0 C -0.017,0.946 -0.823,1.725 -1.767,1.708 -2.713,1.691 -3.491,0.887 -3.474,-0.059 -3.457,-1.005 -2.652,-1.785 -1.708,-1.768 -0.764,-1.75 0.017,-0.942 0,0 m -17.393,-1.775 v 3.49 h 1.036 c 2.833,0 5.666,0.021 8.499,-0.013 0.783,-0.01 1.264,0.135 1.695,0.923 1.238,2.262 3.91,3.139 6.295,2.223 2.372,-0.91 3.784,-3.443 3.269,-5.866 -0.546,-2.565 -2.758,-4.356 -5.322,-4.236 -1.919,0.09 -3.421,0.994 -4.322,2.685 -0.357,0.67 -0.75,0.814 -1.429,0.806 -2.869,-0.03 -5.739,-0.012 -8.608,-0.012 z"
       style="fill:#eb8a00;fill-opacity:1;fill-rule:nonzero;stroke:none"
       id="path594" /></g><g
     id="g596"
     transform="matrix(0.35277776,0,0,-0.35277778,4.9265522,11.711962)"
     clip-path="url(#clipPath5223)"><path
       d="M 0,0 C 0.01,0.944 -0.774,1.745 -1.72,1.755 -2.665,1.765 -3.464,0.982 -3.474,0.035 -3.484,-0.911 -2.702,-1.71 -1.755,-1.721 -0.812,-1.731 -0.01,-0.945 0,0 m 13.921,1.762 v -3.491 c -3.093,0 -6.134,-0.035 -9.174,0.02 -1.016,0.018 -1.649,-0.157 -2.224,-1.169 -1.151,-2.027 -3.684,-2.803 -5.897,-2.079 -2.188,0.715 -3.669,2.849 -3.593,5.174 0.074,2.266 1.656,4.243 3.874,4.843 2.264,0.612 4.658,-0.299 5.781,-2.385 0.428,-0.794 0.91,-0.934 1.693,-0.926 3.153,0.032 6.307,0.013 9.54,0.013"
       style="fill:#eb8a00;fill-opacity:1;fill-rule:nonzero;stroke:none"
       id="path598" /></g><g
     id="g600"
     transform="matrix(0.35277776,0,0,-0.35277778,17.407692,23.423552)"
     clip-path="url(#clipPath5217)"><path
       d="M 0,0 C 0.602,-2.112 2.728,-3.541 5.02,-3.445 7.143,-3.356 9.133,-1.849 9.522,0 Z M -3.908,3.491 H 13.441 C 13.791,-0.017 12.889,-3.025 10,-5.165 7.08,-7.328 3.876,-7.6 0.675,-5.871 c -3.648,1.97 -4.903,5.244 -4.583,9.362"
       style="fill:#eb8a00;fill-opacity:1;fill-rule:nonzero;stroke:none"
       id="path602" /></g></svg>
